Coordinates
version=1
nRows=22
nColumns=24
inDegrees=yes

Units are S.I. units (second, meters, Newtons, ...)
Angles are in degrees.

endheader
time	pelvis_tilt	pelvis_list	pelvis_rotation	pelvis_tx	pelvis_ty	pelvis_tz	hip_flexion_r	hip_adduction_r	hip_rotation_r	knee_angle_r	ankle_angle_r	subtalar_angle_r	mtp_angle_r	hip_flexion_l	hip_adduction_l	hip_rotation_l	knee_angle_l	ankle_angle_l	subtalar_angle_l	mtp_angle_l	lumbar_extension	lumbar_bending	lumbar_rotation
      1.20400000	      2.97947158	      0.19536651	     -9.12909313	     -0.02501374	      0.87676152	      0.30208988	    -25.27522831	      0.83314993	      3.28391828	     -8.69320749	     21.08434153	     13.73206714	     12.08783508	     26.51121721	     -3.04501685	    -13.42898716	     -4.19727951	      7.88304495	     -3.07317910	      2.61426496	    -10.55266899	     -1.08507194	     15.47669966
      1.20816667	      2.92917759	      0.26167536	     -9.25241790	     -0.01910398	      0.87564710	      0.30202611	    -25.36322754	      0.65343829	      3.29531244	     -9.19063556	     21.01073765	     13.84081432	     12.18918833	     26.71777523	     -3.03184660	    -13.41870074	     -5.00895923	      7.93941389	     -3.03770253	      2.64045898	    -10.46757368	     -1.27941645	     15.62536149
      1.21233333	      2.95170833	      0.35279461	     -9.36147116	     -0.01309310	      0.87467833	      0.30193729	    -25.55545171	      0.44199155	      3.29982758	     -9.63430823	     20.83595037	     13.82110677	     12.24206608	     26.80302441	     -2.96349738	    -13.40155543	     -5.76429523	      7.85540697	     -3.13565147	      2.65368583	    -10.44686804	     -1.49567679	     15.65556806
      1.21650000	      2.89512099	      0.44526879	     -9.46818959	     -0.00703753	      0.87363041	      0.30183823	    -25.62670116	      0.24233172	      3.30915990	    -10.15255333	     20.65349280	     13.86436060	     12.41981576	     26.97619587	     -2.90814050	    -13.38891878	     -6.56777241	      7.79938793	     -3.14074514	      2.70441982	    -10.33456430	     -1.72439338	     15.73482066
      1.22066667	      2.86135947	      0.55038236	     -9.56809591	     -0.00091460	      0.87266263	      0.30171338	    -25.72206601	      0.02750260	      3.30975446	    -10.66990405	     20.41435551	     13.86476797	     12.68526576	     27.09521760	     -2.82228026	    -13.36425340	     -7.33415040	      7.63371092	     -3.23044114	      2.78063885	    -10.23885020	     -1.96613997	     15.77347365
      1.22483333	      2.88009294	      0.65568734	     -9.64677812	      0.00526404	      0.87180810	      0.30155873	    -25.88308229	     -0.18647664	      3.29496310	    -11.17135518	     20.13914963	     13.80677849	     12.78560889	     27.14116056	     -2.71312158	    -13.33047704	     -8.08827127	      7.41094138	     -3.38723974	      2.80787116	    -10.20638441	     -2.18648974	     15.78117431
      1.22900000	      2.83780726	      0.79673937	     -9.74238660	      0.01150838	      0.87092811	      0.30139812	    -25.93787813	     -0.43909092	      3.28051916	    -11.73069972	     19.76234807	     13.76153555	     17.62436191	     27.21091624	     -2.56492132	    -13.23945346	     -8.76668213	      7.05696896	     -3.74261431	      4.27896488	    -10.09496932	     -2.47659413	     15.76441896
      1.23316667	      2.80799122	      0.92064626	     -9.78893097	      0.01780729	      0.87009668	      0.30117005	    -26.01610538	     -0.65309467	      3.22721187	    -12.28994554	     19.35184846	     13.68923886	     17.64389927	     27.29125899	     -2.42111970	    -13.19420827	     -9.51067528	      6.73231117	     -3.88786053	      4.28393545	     -9.98942656	     -2.71800005	     15.77386680
      1.23733333	      2.71132955	      1.06786151	     -9.85215483	      0.02414408	      0.86924392	      0.30095703	    -25.98380489	     -0.88503849	      3.22176725	    -12.91590782	     18.94373016	     13.63158099	     17.73583553	     27.41336863	     -2.25727372	    -13.10126955	    -10.19638789	      6.29813072	     -4.18200210	      4.30951215	     -9.79316463	     -3.00668582	     15.75836226
      1.24150000	      2.62678901	      1.21479135	     -9.88897138	      0.03048745	      0.86843803	      0.30065768	    -25.93462527	     -1.11248238	      3.15272557	    -13.60381018	     18.56405328	     13.58016462	     18.02586206	     27.51359762	     -2.05990798	    -12.91089793	    -10.85586327	      5.78258456	     -4.74596901	      4.39248927	     -9.62380262	     -3.25723858	     15.71887152
      1.24566667	      2.54904399	      1.39016478	     -9.92141908	      0.03690064	      0.86771097	      0.30034492	    -25.88092550	     -1.36937189	      3.07130354	    -14.30177313	     18.08231365	     13.51170593	     18.51874546	     27.59210354	     -1.82756517	    -12.75610390	    -11.48612182	      5.22088078	     -5.27454118	      4.53064720	     -9.44994086	     -3.55654232	     15.65002538
      1.24983333	      2.47821197	      1.57978168	     -9.94834322	      0.04340375	      0.86705811	      0.30005655	    -25.84272714	     -1.63651203	      3.00534379	    -14.97133250	     17.46735748	     13.42809174	     18.70437015	     27.67574897	     -1.59851126	    -12.74531718	    -12.16376001	      4.72336064	     -5.49814645	      4.57693937	     -9.26669698	     -3.90388341	     15.60774715
      1.25400000	      2.39345588	      1.77376670	     -9.94573482	      0.04987441	      0.86641781	      0.29964471	    -25.72833350	     -1.90695589	      2.82338950	    -15.74853508	     16.83876673	     13.36073720	     24.07815337	     27.76993758	     -1.32540136	    -12.57737152	    -12.80430318	      4.10999527	     -6.13027951	      6.01085693	     -9.08700069	     -4.21034317	     15.51627719
      1.25816667	      2.29666107	      1.97159147	     -9.95096446	      0.05640161	      0.86584163	      0.29929961	    -25.60846718	     -2.16703474	      2.75574181	    -16.51139506	     16.15751834	     13.21636268	     24.11103947	     27.89296313	     -1.08053584	    -12.55260270	    -13.50292456	      3.56821268	     -6.44400100	      6.01397594	     -8.87972423	     -4.54691418	     15.44838648
      1.26233333	      2.16264685	      2.16191810	     -9.92143917	      0.06287164	      0.86524896	      0.29884172	    -25.38612310	     -2.40591224	      2.61655649	    -17.39915851	     15.55928724	     13.10072206	     24.28349076	     28.05558959	     -0.80490659	    -12.33779983	    -14.17873579	      2.96014920	     -7.13135784	      6.04246553	     -8.64313087	     -4.82931156	     15.32132293
      1.26650000	      2.09905213	      2.40184073	     -9.86012547	      0.06945166	      0.86481842	      0.29832130	    -25.25121854	     -2.70586014	      2.36481410	    -18.24373968	     14.80284471	     13.08323823	     25.02098860	     28.12187871	     -0.44319953	    -12.11019534	    -14.80264078	      2.36209846	     -7.77765709	      6.17136094	     -8.48549359	     -5.20525034	     15.20060657
      1.27066667	      1.93570085	      2.60038903	     -9.83414077	      0.07596033	      0.86430069	      0.29788561	    -24.94605491	     -2.94656635	      2.26272466	    -19.20581745	     14.08938344	     12.91574961	     25.28620996	     28.35869011	     -0.20093175	    -12.07067939	    -15.59955272	      1.90607869	     -8.14439655	      6.20740850	     -8.20602004	     -5.51322140	     15.08315333
      1.27483333	      1.85345015	      2.85077908	     -9.76691080	      0.08255628	      0.86394391	      0.29734119	    -24.72585997	     -3.25762500	      1.99651701	    -20.14544450	     13.21517575	     12.83512330	     29.56717339	     28.48292796	      0.15003863	    -11.93713377	    -16.32816517	      1.46697260	     -8.63783082	      6.78543330	     -8.01910405	     -5.90375004	     14.96661630
      1.27900000	      1.72688181	      3.06593187	     -9.68667427	      0.08910454	      0.86359238	      0.29679578	    -24.42848827	     -3.50852154	      1.80263710	    -21.14473961	     12.36264139	     12.69207007	     29.63055610	     28.68100417	      0.44937271	    -11.81081131	    -17.12801777	      1.07492287	     -9.03685272	      6.78372102	     -7.79523220	     -6.22576324	     14.82384735
      1.28316667	      1.61655110	      3.30108689	     -9.58932518	      0.09567028	      0.86330292	      0.29620321	    -24.11913928	     -3.78630610	      1.54611815	    -22.18959451	     11.48762236	     12.60300535	     29.77235059	     28.86241297	      0.78530217	    -11.65115641	    -17.93268578	      0.74977613	     -9.46901977	      6.78109998	     -7.58950069	     -6.57983241	     14.67220074
      1.28733333	      1.51683711	      3.54492661	     -9.48040866	      0.10224649	      0.86307952	      0.29557061	    -23.79373509	     -4.07791897	      1.25760521	    -23.27270129	     10.57238264	     12.51828723	     29.98897914	     29.03481557	      1.13766925	    -11.48612794	    -18.75038255	      0.48687208	     -9.86895577	      6.77369868	     -7.39723661	     -6.94323682	     14.51576595
      1.29150000	      1.46352166	      3.79899130	     -9.35978940	      0.10886451	      0.86298049	      0.29494871	    -23.51759541	     -4.38218209	      0.95926417	    -24.33891324	      9.55341810	     12.42166861	     30.10271491	     29.15751710	      1.50051823	    -11.37042132	    -19.59019977	      0.36308620	    -10.09007866	      6.76705870	     -7.26008759	     -7.35200717	     14.41890693
